<?xml version="1.0" encoding="UTF-8" standalone="no"?>
<svg
   inkscape:version="1.3.2 (091e20e, 2023-11-25, custom)"
   sodipodi:docname="icon.svg"
   id="svg10"
   preserveAspectRatio="xMidYMid"
   viewBox="0 0 512 512"
   height="512"
   width="512"
   version="1.0"
   xmlns:inkscape="http://www.inkscape.org/namespaces/inkscape"
   xmlns:sodipodi="http://sodipodi.sourceforge.net/DTD/sodipodi-0.dtd"
   xmlns="http://www.w3.org/2000/svg"
   xmlns:svg="http://www.w3.org/2000/svg"
   xmlns:rdf="http://www.w3.org/1999/02/22-rdf-syntax-ns#"
   xmlns:cc="http://creativecommons.org/ns#"
   xmlns:dc="http://purl.org/dc/elements/1.1/">
  <title
     id="title2">Horse3jsIcon</title>
  <defs
     id="defs14" />
  <sodipodi:namedview
     inkscape:current-layer="svg10"
     inkscape:window-maximized="1"
     inkscape:window-y="-8"
     inkscape:window-x="-8"
     inkscape:cy="206.04839"
     inkscape:cx="152.41935"
     inkscape:zoom="1.24"
     fit-margin-bottom="0"
     fit-margin-right="0"
     fit-margin-left="0"
     fit-margin-top="0"
     units="px"
     showgrid="false"
     id="namedview12"
     inkscape:window-height="1017"
     inkscape:window-width="1920"
     inkscape:pageshadow="2"
     inkscape:pageopacity="0"
     guidetolerance="10"
     gridtolerance="10"
     objecttolerance="10"
     borderopacity="1"
     bordercolor="#666666"
     pagecolor="#ffffff"
     inkscape:showpageshadow="2"
     inkscape:pagecheckerboard="0"
     inkscape:deskcolor="#d1d1d1"
     showborder="true" />
  <metadata
     id="metadata2">
Created by potrace 1.14, written by Peter Selinger 2001-2017
<rdf:RDF>
  <cc:Work
     rdf:about="">
    <dc:format>image/svg+xml</dc:format>
    <dc:type
       rdf:resource="http://purl.org/dc/dcmitype/StillImage" />
    <dc:title>Horse3jsIcon</dc:title>
  </cc:Work>
</rdf:RDF>
</metadata>
  <rect
     style="fill:#5599ff;stroke:#ffffff;stroke-width:23.8362;stroke-linecap:round;stroke-linejoin:bevel;stroke-dasharray:none;stroke-opacity:0.866667"
     id="rect1"
     width="488.16385"
     height="488.16385"
     x="11.918063"
     y="11.918063"
     rx="81.360641"
     ry="81.360641" />
  <path
     id="rect2"
     style="fill:#00aa44;stroke:#ffffff;stroke-width:0;stroke-linecap:round;stroke-linejoin:bevel;stroke-opacity:0.866667"
     d="m 21.804811,337.83367 466.904859,-0.73688 -2.82258,107.95267 c -11.92727,27.95051 -35.19674,37.05796 -58.6901,45.79345 L 83.49836,490.36749 C 62.637658,483.36598 32.265954,478.78109 21.592925,437.97745 Z"
     sodipodi:nodetypes="ccccccc" />
  <path
     d="m 273.28387,61.430475 a 35.641742,35.641742 0 0 0 -35.38922,35.643664 35.641742,35.641742 0 0 0 35.64047,35.640471 35.641742,35.641742 0 0 0 35.64364,-35.640471 35.641742,35.641742 0 0 0 -35.64364,-35.643664 35.641742,35.641742 0 0 0 -0.25125,0 z m 140.4564,31.470862 c -1.69964,-0.162841 -4.79299,0.386106 -11.10306,1.48528 -36.8834,6.432203 -61.30887,20.516003 -82.80383,47.710393 -2.36119,2.93115 -12.05212,16.44946 -21.49685,29.88382 -14.49282,20.59934 -17.50411,24.50497 -19.0511,24.26071 -2.60545,-0.24426 -12.53809,-4.72112 -19.70308,-8.87356 -7.81635,-4.47811 -16.36548,-13.43435 -19.94798,-20.76218 -3.25681,-6.51362 -4.56017,-11.72389 -7.16562,-28.25221 -1.70982,-10.91033 -2.5234,-14.16777 -4.64032,-18.15736 -3.41966,-6.35079 -6.10653,-8.22474 -12.62015,-8.63184 -9.11908,-0.56994 -16.69054,4.56019 -21.33149,14.49347 -2.84972,6.0251 -2.93177,17.01747 -0.2449,25.89229 2.52403,7.97919 9.76981,22.14506 14.81787,28.82153 7.57209,10.0147 15.4686,16.53021 26.37892,21.90395 9.44476,4.55954 20.43776,8.06061 29.394,9.36334 l 3.98833,0.56931 -4.31273,3.98832 c -11.39885,10.4218 -35.98778,19.62294 -64.32207,23.8568 l -7.73493,1.14177 -6.51363,-4.15369 c -8.06061,-5.2109 -19.29724,-10.50259 -34.84852,-16.44628 -14.89992,-5.69942 -19.94861,-7.0034 -26.7065,-7.0034 -7.32783,0 -10.99301,1.22065 -15.14545,5.04741 -5.12948,4.72237 -7.97664,11.07444 -7.97664,17.99517 v 5.53721 l -4.96792,-0.48978 c -16.20264,-1.70985 -56.506967,-7.3272 -65.626042,-9.11845 -1.872667,-0.32568 -2.279133,-0.0808 -3.011916,2.2804 -2.116928,6.67646 -2.116292,6.67455 5.537218,8.22154 14.574236,2.93113 50.642799,7.57463 66.92686,8.71451 l 9.44603,0.56932 6.43093,4.23322 c 8.22346,5.37374 10.99111,6.51426 31.50903,12.86504 9.44475,2.93113 18.97284,6.35016 21.08977,7.49004 4.07101,2.19835 9.85059,7.57081 11.72326,10.90904 3.41966,6.18795 -1.62777,16.53087 -16.85338,34.76902 -8.54913,10.25896 -34.27731,38.91765 -50.23569,56.09733 -5.04806,5.45516 -9.20114,10.25959 -9.20114,10.82953 0,2.68687 10.74748,-2.60608 44.37407,-21.82127 25.15889,-14.4114 33.30092,-20.19161 44.78118,-31.50903 11.39884,-11.236 18.64525,-20.59934 23.20479,-30.12552 9.36334,-19.54087 7.32846,-33.13744 -7.49004,-49.8286 -2.60545,-2.93113 -4.72301,-5.53912 -4.72301,-5.8648 0,-0.32568 4.9679,-1.6265 11.07443,-2.92922 19.45947,-4.15244 39.56775,-11.80658 50.72233,-19.37867 2.03551,-1.46556 6.51489,-5.20964 9.85312,-8.46645 l 6.1892,-5.94431 30.85704,-0.81421 c 29.31131,-0.73278 36.23204,-1.3854 36.23204,-3.33949 0,-0.89564 -2.36119,-1.38414 -14.65566,-2.84971 -16.4469,-1.95409 -41.52436,-6.5957 -41.52436,-7.57274 0,-1.7098 27.27518,-40.95314 35.58005,-51.2121 7.16499,-8.87481 19.54214,-20.8436 26.13718,-25.24029 7.65351,-5.12948 17.91184,-9.85123 28.25222,-13.18946 10.66606,-3.41966 22.22901,-6.02702 24.91588,-5.61992 1.38414,0.16285 3.74344,5.61866 14.73518,34.44145 23.85616,62.61222 35.66273,94.20328 35.66273,95.26176 0,1.05847 -14.4941,10.82954 -20.84486,14.08635 l -3.33634,1.71108 -8.54914,-6.679 c -4.64095,-3.66392 -19.54213,-15.38653 -33.0579,-26.13401 -31.18398,-24.75178 -29.79858,-23.77473 -32.48545,-22.79769 -1.13988,0.4071 -2.44387,1.30273 -2.93239,2.03551 -1.70982,2.68687 0.16349,5.45388 7.97982,11.72324 l 7.73493,6.18923 v 54.30672 54.3894 l 2.35991,1.38351 c 1.30273,0.73278 2.93113,1.38352 3.66391,1.38352 3.1754,0 3.33952,-1.7919 3.74662,-53.57522 l 0.4071,-49.90811 13.02725,10.50196 c 7.16499,5.78084 18.64397,14.89992 25.5647,20.35508 l 12.45796,9.85311 6.67581,-4.07101 c 14.49282,-8.95624 29.79984,-19.13378 30.12552,-19.94798 0.24426,-0.56994 -1.05718,-4.72238 -2.76701,-9.36333 -4.23386,-11.64311 -49.25929,-129.867944 -50.8877,-133.694698 -0.73278,-1.750537 -1.03875,-2.623254 -2.73839,-2.786095 z"
     style="fill:#000000;stroke-width:1.39238;stroke-linejoin:bevel;paint-order:markers stroke fill"
     id="path843" />
  <rect
     style="fill:none;stroke:#ececec;stroke-width:23.8362;stroke-linecap:round;stroke-linejoin:bevel;stroke-dasharray:none;stroke-opacity:1"
     id="rect1-9"
     width="488.16385"
     height="488.16385"
     x="11.918063"
     y="11.918063"
     rx="81.360641"
     ry="81.360641" />
</svg>
